<svg xmlns="http://www.w3.org/2000/svg" id="Layer_1" viewBox="147.65 141.42 330.96 70.61"><defs><style>.cls-1{fill:#231f20;}.cls-1,.cls-2{stroke-width:0px;}.cls-2{fill:#d93b20;}</style></defs><polygon class="cls-1" points="241.61 165.39 241.61 172.41 252.46 172.41 252.46 176.77 241.61 176.77 241.61 190.08 236.8 190.08 236.8 161.03 259.72 161.03 259.72 165.39 241.61 165.39"/><path class="cls-1" d="m263.64,181.13v-13.18h4.76v13.31s-.26,5.43,5.6,5.43,5.6-5.43,5.6-5.43v-13.31h4.76v13.18c0,9.41-7.49,9.63-10.36,9.63s-10.36-.21-10.36-9.63"/><path class="cls-1" d="m371.75,177.58v13.18h-4.76v-13.31s.26-5.43-5.6-5.43-5.6,5.43-5.6,5.43v13.31h-4.76v-13.18c0-9.41,7.49-9.63,10.36-9.63s10.36.21,10.36,9.63"/><rect class="cls-1" x="311.18" y="167.92" width="4.76" height="22.16"/><path class="cls-1" d="m321.03,179.04c0-6.46,5.55-11.72,12.47-11.72s12.47,5.26,12.47,11.72-5.55,11.68-12.47,11.68-12.47-5.22-12.47-11.68m20.36,0c0-4.19-3.39-7.57-7.89-7.57s-7.89,3.38-7.89,7.57,3.39,7.53,7.89,7.53,7.89-3.38,7.89-7.53"/><polygon class="cls-1" points="391.32 161.65 396.08 161.65 396.08 186.33 414.23 186.33 414.23 190.7 391.32 190.7 391.32 161.65"/><path class="cls-1" d="m417.37,179.66c0-6.46,4.94-11.72,11.9-11.72,3.31,0,6.08,1.24,7.67,2.78v-2.14h4.72v22.12h-4.8l.04-2.27c-1.5,1.5-3.92,2.91-7.62,2.91-6.96,0-11.9-5.22-11.9-11.68m19.83-.04c0-4.79-3.35-7.57-7.58-7.57s-7.49,3.38-7.49,7.57,3.22,7.61,7.49,7.61,7.58-2.78,7.58-7.61"/><path class="cls-1" d="m451.47,188.43l.04,2.27h-4.8v-29.05h4.72v9.07c1.59-1.54,4.36-2.78,7.67-2.78,6.96,0,11.9,5.26,11.9,11.72s-4.94,11.68-11.9,11.68c-3.7,0-6.13-1.41-7.62-2.91m14.89-8.81c0-4.19-3.35-7.57-7.62-7.57s-7.58,2.78-7.58,7.57,3.35,7.61,7.58,7.61,7.62-3.42,7.62-7.61"/><path class="cls-1" d="m293.86,183.81c0,.88.42,1.57,1.26,2.08.75.45,1.66.68,2.74.68s2.01-.23,2.76-.68c.84-.51,1.26-1.2,1.26-2.08,0-.69-.47-1.26-1.42-1.7-.56-.27-1.6-.59-3.12-.96-2.64-.65-4.46-1.31-5.44-1.96-1.65-1.11-2.48-2.78-2.48-5.02,0-1.6.51-2.97,1.52-4.12.92-1.03,2.17-1.78,3.74-2.26,1.03-.31,2.09-.46,3.18-.46s2.17.15,3.18.46c1.59.48,2.84,1.23,3.76,2.26,1.01,1.15,1.52,2.52,1.52,4.12h-4.44c0-.87-.42-1.55-1.26-2.06-.75-.47-1.67-.7-2.76-.7s-1.99.23-2.74.7c-.84.51-1.26,1.19-1.26,2.06,0,.69.47,1.27,1.42,1.72.56.27,1.59.59,3.1.96,2.65.64,4.48,1.29,5.46,1.96,1.65,1.11,2.48,2.77,2.48,5,0,1.61-.51,3-1.52,4.14-.92,1.03-2.18,1.77-3.76,2.24-1.01.31-2.07.46-3.18.46s-2.15-.15-3.18-.46c-1.57-.47-2.82-1.21-3.74-2.24-1.01-1.15-1.52-2.53-1.52-4.14h4.44Z"/><path class="cls-2" d="m315.87,162.14c0,1.39-1.1,2.46-2.49,2.46s-2.53-1.07-2.53-2.46,1.1-2.42,2.53-2.42,2.49,1.07,2.49,2.42h0Z"/><path class="cls-2" d="m478.61,188.34c0,1.39-1.1,2.46-2.49,2.46s-2.53-1.07-2.53-2.46,1.1-2.42,2.53-2.42,2.49,1.07,2.49,2.42h0Z"/><path class="cls-1" d="m174.76,183.81c-.24,0-.48-.09-.66-.27l-6.15-6.15c-.17-.17-.27-.41-.27-.66s.1-.48.27-.66l6.15-6.15c.36-.36.95-.36,1.32,0s.36.95,0,1.32l-5.49,5.49,5.49,5.49c.36.36.36.95,0,1.32-.18.18-.42.27-.66.27Z"/><path class="cls-1" d="m191.13,183.81c-.24,0-.48-.09-.66-.27-.36-.36-.36-.95,0-1.32l5.49-5.49-5.49-5.49c-.36-.36-.36-.95,0-1.32s.95-.36,1.32,0l6.15,6.15c.17.17.27.41.27.66s-.1.48-.27.66l-6.15,6.15c-.18.18-.42.27-.66.27Z"/><path class="cls-2" d="m179.87,183.81c-.14,0-.28-.03-.42-.1-.46-.23-.65-.79-.42-1.25l6.15-12.3c.23-.46.79-.65,1.25-.42.46.23.65.79.42,1.25l-6.15,12.3c-.16.33-.49.52-.83.52Z"/><path class="cls-2" d="m217.09,168.23c-.73,2.76-1.79,5.61-3.17,8.48-.32-.68-.67-1.36-1.04-2.03,1.06-2.35,1.88-4.67,2.47-6.91.98-3.73,1.46-7.68.84-11.51-.63-3.91-2.8-7.91-6.09-10.19-3.18-2.19-7.1-2.94-10.9-2.84-2.46.07-4.91.48-7.29,1.1-8.73,2.29-17.85,7.86-25.67,15.68-4.02,4.02-7.46,8.39-10.21,12.99-.3-.63-.6-1.29-.88-1.95,2.72-4.37,6.02-8.51,9.82-12.31,8.04-8.04,17.45-13.78,26.48-16.15,7.29-1.91,16.11-1.83,21.81,3.8,5.74,5.67,5.77,14.53,3.83,21.84Z"/><path class="cls-2" d="m156.69,199.79c0-1.39,1.1-2.46,2.49-2.46s2.53,1.07,2.53,2.46-1.1,2.42-2.53,2.42-2.49-1.07-2.49-2.42h0Z"/><path class="cls-1" d="m214.45,205.73c-.37.47-.77.9-1.18,1.32-3.98,3.91-9.83,5.25-15.33,4.86-.22-.01-.43-.03-.65-.05-3.83-.37-7.65-1.29-11.19-2.82-.63-.27-1.26-.56-1.87-.88-.26-.13-.79-.36-1.17-.52.65-.31,1.29-.63,1.93-.98,11.31,5.09,21.38,4.77,27.02-.88,3.71-3.72,4.74-9.19,4.35-14.27-.5-6.45-3-12.6-6.26-18.13-2.88-4.89-6.42-9.36-10.43-13.37-2.68-2.68-5.54-5.04-8.45-7.21-1.45-1.08-5.31-3.44-5.31-3.44.62-.31,2.15-.82,2.15-.82,0,0,1.07.62,1.29.77,4.35,2.92,7.88,5.72,11.59,9.43,4.57,4.57,8.55,9.72,11.66,15.4,2.41,4.41,4.32,9.22,5.17,14.23,1.01,5.88.54,12.52-3.32,17.36Z"/><path class="cls-1" d="m176.18,144.97c-9.16-3.08-17.52-2.07-22.28,2.7-4.4,4.4-5.59,11.54-3.34,20.1,2.29,8.73,7.86,17.85,15.68,25.67,4.09,4.09,8.53,7.56,13.2,10.33-.69.32-1.35.6-2,.86-4.42-2.73-8.62-6.07-12.47-9.92-8.04-8.04-13.78-17.45-16.15-26.49-2.42-9.21-1.06-16.96,3.81-21.83,3.29-3.29,7.94-4.96,13.44-4.96,3.12,0,6.39.41,9.91,1.59,1.74.58,5.43,1.99,6.98,2.73-.71.36-1.46.7-2.08,1.05,0,0-3.5-1.43-4.7-1.83Z"/><path class="cls-2" d="m210.11,180.07c-2.78,4.72-6.28,9.22-10.44,13.37-7.82,7.82-16.94,13.39-25.67,15.68-6.85,1.8-15.47,1.85-20.59-3.83-5.73-6.36-4.38-16.06-1.65-23.43.39-1.04.81-2.07,1.26-3.09-.35-.66-.69-1.32-1.01-1.98.09.18-.64,1.38-.74,1.61-.76,1.73-1.46,3.61-2.01,5.46-.66,2.22-1.15,4.51-1.39,6.82-.4,3.91-.09,8,1.52,11.63,2.92,6.59,9.67,9.72,16.61,9.72,2.64,0,5.49-.39,8.45-1.17,9.03-2.37,18.44-8.1,26.48-16.15,3.92-3.92,7.3-8.16,10.05-12.62-.28-.68-.58-1.35-.88-2.02Z"/><path class="cls-2" d="m158.57,146.25c0,2.67-2.16,4.83-4.83,4.83s-4.83-2.16-4.83-4.83,2.16-4.83,4.83-4.83,4.83,2.16,4.83,4.83h0Z"/><path class="cls-2" d="m207.31,207.14c0-2.67,2.16-4.83,4.83-4.83s4.83,2.16,4.83,4.83-2.16,4.83-4.83,4.83-4.83-2.16-4.83-4.83h0Z"/><path class="cls-2" d="m209.27,153.7c0,1.39-1.1,2.46-2.49,2.46s-2.53-1.07-2.53-2.46,1.1-2.42,2.53-2.42,2.49,1.07,2.49,2.42h0Z"/></svg>