<svg xmlns="http://www.w3.org/2000/svg" id="Layer_1" viewBox="190.12 190.12 186.69 186.69">
    <defs>
        <style>.cls-1{fill:#fff;}.cls-1,.cls-2{stroke-width:0px;}.cls-2{fill:#d93b20;}</style>
    </defs>
    <path class="cls-1"
          d="m261.83,302.19c-.63,0-1.26-.24-1.74-.72l-16.26-16.26c-.46-.46-.72-1.09-.72-1.74s.26-1.28.72-1.74l16.26-16.26c.96-.96,2.52-.96,3.49,0s.96,2.52,0,3.49l-14.52,14.51,14.52,14.52c.96.96.96,2.52,0,3.49-.48.48-1.11.72-1.74.72Z"/>
    <path class="cls-1"
          d="m305.1,302.19c-.63,0-1.26-.24-1.74-.72-.96-.96-.96-2.52,0-3.49l14.52-14.52-14.52-14.51c-.96-.96-.96-2.52,0-3.49s2.52-.96,3.49,0l16.26,16.26c.46.46.72,1.09.72,1.74s-.26,1.28-.72,1.74l-16.26,16.26c-.48.48-1.11.72-1.74.72Z"/>
    <path class="cls-2"
          d="m275.33,302.19c-.37,0-.75-.09-1.1-.26-1.22-.61-1.71-2.09-1.1-3.31l16.26-32.52c.61-1.22,2.09-1.71,3.31-1.1,1.22.61,1.71,2.09,1.1,3.31l-16.26,32.52c-.43.86-1.3,1.36-2.21,1.36Z"/>
    <path class="cls-2"
          d="m373.75,261c-1.93,7.3-4.73,14.83-8.38,22.42-.85-1.8-1.77-3.6-2.75-5.37,2.8-6.21,4.97-12.35,6.53-18.27,2.6-9.86,3.87-20.31,2.23-30.44-1.67-10.33-7.39-20.92-16.11-26.94-8.4-5.8-18.77-7.78-28.83-7.51-6.51.18-12.98,1.26-19.27,2.91-23.08,6.06-47.2,20.78-67.87,41.46-10.63,10.63-19.73,22.18-27,34.35-.79-1.67-1.59-3.41-2.33-5.16,7.19-11.55,15.92-22.5,25.97-32.55,21.26-21.26,46.14-36.44,70.02-42.7,19.27-5.06,42.6-4.85,57.66,10.03,15.17,15,15.26,38.41,10.14,57.76Z"/>
    <path class="cls-2"
          d="m214.04,344.45c0-3.67,2.91-6.49,6.58-6.49s6.69,2.83,6.69,6.49-2.91,6.39-6.69,6.39-6.58-2.83-6.58-6.39h0Z"/>
    <path class="cls-1"
          d="m366.76,360.15c-.98,1.24-2.04,2.38-3.12,3.49-10.52,10.34-25.99,13.88-40.53,12.85-.58-.03-1.14-.08-1.72-.13-10.13-.98-20.23-3.41-29.59-7.46-1.67-.71-3.33-1.48-4.94-2.33-.69-.34-2.09-.95-3.09-1.38,1.72-.82,3.41-1.67,5.1-2.59,29.91,13.46,56.53,12.61,71.44-2.33,9.81-9.84,12.53-24.3,11.5-37.73-1.32-17.05-7.93-33.32-16.55-47.94-7.62-12.93-16.98-24.75-27.58-35.35-7.09-7.09-14.65-13.33-22.34-19.06-3.83-2.86-14.04-9.1-14.04-9.1,1.64-.82,5.68-2.17,5.68-2.17,0,0,2.83,1.64,3.41,2.04,11.5,7.72,20.84,15.12,30.65,24.93,12.08,12.08,22.61,25.7,30.83,40.72,6.38,11.65,11.42,24.39,13.67,37.63,2.67,15.55,1.43,33.1-8.78,45.9Z"/>
    <path class="cls-1"
          d="m265.57,199.5c-24.23-8.14-46.31-5.47-58.92,7.13-11.63,11.63-14.77,30.51-8.83,53.16,6.06,23.09,20.78,47.2,41.46,67.88,10.81,10.81,22.54,19.99,34.9,27.32-1.83.84-3.57,1.59-5.28,2.28-11.68-7.21-22.78-16.04-32.99-26.24-21.27-21.27-36.43-46.14-42.7-70.03-6.39-24.34-2.81-44.84,10.06-57.72,8.69-8.69,21-13.13,35.52-13.13,8.24,0,16.89,1.08,26.21,4.21,4.6,1.54,14.36,5.25,18.46,7.21-1.89.96-3.85,1.86-5.49,2.78,0,0-9.27-3.78-12.43-4.84Z"/>
    <path class="cls-2"
          d="m355.29,292.3c-7.35,12.48-16.61,24.38-27.6,35.35-20.68,20.68-44.79,35.4-67.87,41.46-18.12,4.75-40.91,4.88-54.44-10.14-15.14-16.82-11.57-42.48-4.37-61.94,1.02-2.76,2.14-5.48,3.34-8.16-.93-1.75-1.82-3.49-2.67-5.24.23.48-1.68,3.66-1.95,4.26-2,4.58-3.86,9.55-5.32,14.44-1.75,5.88-3.04,11.92-3.67,18.03-1.06,10.35-.24,21.16,4.02,30.76,7.73,17.42,25.57,25.69,43.91,25.69,6.98,0,14.52-1.03,22.34-3.09,23.88-6.27,48.76-21.42,70.02-42.7,10.37-10.36,19.3-21.58,26.57-33.37-.74-1.8-1.53-3.57-2.33-5.34Z"/>
    <path class="cls-2"
          d="m219.01,202.89c0,7.05-5.72,12.77-12.77,12.77s-12.77-5.72-12.77-12.77,5.72-12.77,12.77-12.77,12.77,5.72,12.77,12.77h0Z"/>
    <path class="cls-2"
          d="m347.88,363.89c0-7.05,5.72-12.77,12.77-12.77s12.77,5.72,12.77,12.77-5.72,12.77-12.77,12.77-12.77-5.72-12.77-12.77h0Z"/>
    <path class="cls-2"
          d="m353.08,222.58c0,3.67-2.91,6.49-6.58,6.49s-6.69-2.83-6.69-6.49,2.91-6.39,6.69-6.39,6.58,2.83,6.58,6.39h0Z"/>
</svg>
